<svg xmlns="http://www.w3.org/2000/svg" viewBox="0 0 64 64">
  <defs>
    <linearGradient id="bg" x1="0" y1="0" x2="1" y2="1">
      <stop offset="0" stop-color="#0f172a"/>
      <stop offset="1" stop-color="#1f2937"/>
    </linearGradient>
    <radialGradient id="orb" cx="0.3" cy="0.3" r="0.8">
      <stop offset="0" stop-color="#34d399"/>
      <stop offset="1" stop-color="#0ea5e9"/>
    </radialGradient>
  </defs>
  <rect width="64" height="64" rx="14" fill="url(#bg)"/>
  <circle cx="32" cy="30" r="18" fill="url(#orb)" opacity="0.95"/>
  <path d="M32 13c1.4 3.8 3.8 6.2 7.6 7.5-3.8 1.4-6.2 3.8-7.6 7.6-1.4-3.8-3.8-6.2-7.6-7.6 3.8-1.3 6.2-3.7 7.6-7.5z" fill="#ecfeff" opacity="0.9"/>
  <path d="M27 41c1.7 1.3 3.3 1.9 5 1.9s3.3-.6 5-1.9c-.7 3.2-2.3 4.9-5 4.9s-4.3-1.7-5-4.9z" fill="#0b1325" opacity="0.5"/>
  <circle cx="38" cy="24" r="3" fill="#f8fafc" opacity="0.9"/>
  <circle cx="24" cy="22" r="2" fill="#f8fafc" opacity="0.75"/>
</svg>
